 <svg  version="1.0" xmlns="http://www.w3.org/2000/svg"  width="300.000000pt" height="230.000000pt" viewBox="0 0 300.000000 230.000000"  preserveAspectRatio="xMidYMid meet">  <g transform="translate(0.000000,230.000000) scale(0.050000,-0.050000)" fill="#3c7a23" stroke="none"> <path d="M3466 4236 c-11 -14 -25 -40 -31 -57 -6 -17 -198 -471 -426 -1008 -432 -1015 -437 -1032 -333 -1047 54 -8 24 -72 515 1084 318 749 410 985 395 1010 -26 41 -94 51 -120 18z"/> <path d="M2005 3595 c-223 -223 -405 -419 -405 -435 0 -60 789 -824 842 -817 124 18 79 88 -302 467 l-362 359 371 369 c350 347 370 371 344 410 -51 77 -81 55 -488 -353z"/> <path d="M3724 3976 c-50 -50 -15 -95 336 -446 l360 -360 -362 -362 c-383 -383 -425 -449 -296 -464 48 -6 809 740 835 818 9 25 -795 838 -828 838 -11 0 -32 -11 -45 -24z"/> <path d="M765 1585 c-259 -6 -265 -7 -265 -51 0 -24 -6 -91 -13 -149 -16 -137 27 -144 81 -13 38 93 126 168 197 168 32 0 35 -32 35 -400 l0 -400 -60 0 c-40 0 -60 -10 -60 -30 0 -25 35 -30 210 -28 166 1 210 8 210 30 0 18 -22 28 -59 28 l-59 0 -6 380 c-7 420 -7 420 41 419 65 -1 133 -57 183 -150 67 -124 92 -109 83 51 -9 151 -19 161 -153 155 -55 -2 -219 -7 -365 -10z"/> <path d="M3660 1569 c0 -19 21 -29 60 -29 l60 0 0 -400 0 -400 -60 0 c-39 0 -60 -10 -60 -29 0 -34 439 -40 570 -7 349 88 394 675 64 850 -89 47 -634 61 -634 15z m591 -91 c109 -109 110 -566 2 -674 -48 -48 -254 -96 -284 -67 -5 5 -9 189 -9 409 l0 399 121 -9 c94 -7 132 -19 170 -58z"/> <path d="M1412 1239 c-177 -52 -266 -277 -170 -432 140 -226 487 -139 513 129 18 190 -167 354 -343 303z m148 -59 c46 -29 55 -344 12 -410 -101 -154 -219 -29 -209 220 7 184 22 209 117 209 28 0 64 -8 80 -19z"/> <path d="M4724 1228 c-131 -67 -203 -279 -138 -407 76 -152 308 -191 426 -73 71 71 89 132 38 132 -16 0 -30 -12 -30 -27 0 -42 -84 -107 -158 -120 -102 -20 -142 26 -142 160 l0 107 171 0 c191 0 213 16 161 115 -61 120 -212 171 -328 113z m175 -57 c13 -16 21 -50 18 -75 -10 -69 -184 -69 -194 0 -8 62 30 104 97 104 30 0 66 -13 79 -29z"/> <path d="M2111 1192 c-63 -63 -71 -64 -71 -12 0 44 -224 62 -250 20 -7 -12 13 -20 49 -20 l61 0 0 -219 c0 -209 -2 -218 -43 -225 -131 -19 -53 -57 106 -52 156 6 228 37 120 53 -107 15 -29 417 85 440 106 21 147 -397 42 -437 -101 -38 -53 -62 115 -56 153 6 226 37 120 52 -43 7 -45 14 -45 212 0 236 -17 267 -157 286 -68 9 -88 3 -132 -42z"/> <path d="M2625 1225 c-125 -6 -216 -45 -106 -45 44 0 51 -11 183 -286 l95 -197 -40 -93 c-22 -52 -48 -115 -59 -141 -18 -45 -22 -46 -55 -15 -61 54 -158 -6 -129 -81 64 -167 225 -11 334 323 91 279 185 479 229 489 85 20 43 51 -70 51 -73 0 -117 -9 -122 -25 -5 -15 10 -25 41 -25 l48 0 -49 -140 c-61 -170 -63 -171 -131 -15 -65 149 -65 155 -15 155 27 0 36 10 28 30 -6 17 -17 28 -24 26 -7 -2 -78 -7 -158 -11z"/> <path d="M5060 1207 c0 -15 17 -27 37 -27 34 0 162 -237 241 -445 25 -66 75 -72 92 -10 14 51 155 441 163 453 3 4 26 8 50 10 24 1 48 14 52 28 7 20 -21 25 -118 20 -119 -6 -168 -38 -79 -52 38 -6 38 -8 -2 -130 -59 -176 -68 -178 -136 -28 -71 158 -70 147 -20 160 99 26 33 54 -120 51 -119 -2 -160 -10 -160 -30z"/> </g> </svg> 