<?xml version="1.0" standalone="no"?>
<!DOCTYPE svg PUBLIC "-//W3C//DTD SVG 20010904//EN"
 "http://www.w3.org/TR/2001/REC-SVG-20010904/DTD/svg10.dtd">
<svg version="1.0" xmlns="http://www.w3.org/2000/svg"
 width="300.000000pt" height="199.000000pt" viewBox="0 0 300.000000 199.000000"
 preserveAspectRatio="xMidYMid meet">
<metadata>
Created by potrace 1.10, written by Peter Selinger 2001-2011
</metadata>
<g transform="translate(0.000000,199.000000) scale(0.100000,-0.100000)"
fill="#3d7a32" stroke="none">
<path d="M1551 1378 c-5 -13 -39 -93 -75 -178 -66 -155 -75 -185 -56 -178 11
3 160 344 160 365 0 21 -20 15 -29 -9z"/>
<path d="M1298 1277 c-37 -39 -67 -74 -67 -77 4 -14 150 -142 156 -136 4 3
-23 37 -60 74 l-67 68 65 64 c36 35 65 68 65 72 0 23 -32 0 -92 -65z"/>
<path d="M1600 1343 c0 -4 29 -37 65 -73 l66 -66 -66 -63 c-60 -58 -77 -81
-57 -81 4 0 41 34 82 75 l74 75 -69 70 c-62 62 -95 84 -95 63z"/>
<path d="M1195 925 c-5 -2 -45 -11 -88 -20 -48 -10 -75 -20 -71 -27 4 -6 23
-8 43 -5 l37 5 -4 -87 c-3 -70 -1 -89 11 -100 14 -11 16 -2 16 86 0 109 7 122
68 124 18 1 38 3 43 4 6 1 15 3 20 4 6 0 10 6 10 11 0 9 -62 13 -85 5z"/>
<path d="M1628 890 c-41 -22 -52 -35 -43 -50 4 -6 15 -2 27 10 12 11 23 18 26
16 2 -3 -1 -28 -7 -58 -16 -83 -17 -121 -4 -125 7 -3 46 29 88 69 56 55 75 81
75 100 0 56 -89 76 -162 38z m140 -26 c2 -15 -15 -39 -59 -83 -34 -33 -65 -61
-69 -61 -4 0 -1 23 6 52 8 29 14 62 14 73 0 32 21 46 65 43 32 -2 41 -7 43
-24z"/>
<path d="M1910 780 c-27 -43 -45 -53 -35 -17 11 35 11 39 -2 44 -9 3 -13 -5
-13 -25 0 -28 -32 -62 -60 -62 -19 0 -10 15 21 33 34 19 34 40 1 45 -26 4 -54
-35 -46 -65 8 -29 42 -40 62 -19 14 14 17 14 29 -2 10 -12 16 -13 19 -5 3 6
18 30 35 52 16 23 29 45 29 51 0 21 -17 9 -40 -30z m-80 6 c0 -2 -8 -10 -17
-17 -16 -13 -17 -12 -4 4 13 16 21 21 21 13z"/>
<path d="M1240 775 c-17 -32 -9 -70 14 -70 28 0 63 51 50 73 -16 25 -50 23
-64 -3z m34 -36 c-9 -10 -21 -19 -26 -19 -15 0 -8 20 14 42 27 27 39 6 12 -23z"/>
<path d="M1333 756 c2 -50 27 -80 27 -34 0 13 7 32 15 42 14 19 15 18 15 -17
0 -20 5 -37 10 -37 16 0 11 66 -6 81 -14 11 -18 11 -28 -3 -11 -15 -13 -15
-24 0 -9 14 -11 8 -9 -32z"/>
<path d="M1427 764 c-4 -21 -4 -41 -1 -46 10 -16 31 -8 43 18 6 15 14 24 17
22 7 -7 -25 -87 -48 -120 -16 -24 -17 -28 -4 -28 21 0 66 91 69 138 3 46 -15
49 -44 7 -20 -29 -21 -26 -8 24 2 7 -1 15 -7 18 -6 2 -14 -12 -17 -33z"/>
</g>
</svg>
